<?xml version="1.0" encoding="UTF-8" standalone="no"?>
<svg
   width="150px"
   height="25px"
   viewBox="0 0 150 25"
   version="1.1"
   id="svg1"
   sodipodi:docname="fiton-logo.svg"
   inkscape:version="1.3.2 (091e20e, 2023-11-25, custom)"
   xmlns:inkscape="http://www.inkscape.org/namespaces/inkscape"
   xmlns:sodipodi="http://sodipodi.sourceforge.net/DTD/sodipodi-0.dtd"
   xmlns="http://www.w3.org/2000/svg"
   xmlns:svg="http://www.w3.org/2000/svg"
   xmlns:rdf="http://www.w3.org/1999/02/22-rdf-syntax-ns#"
   xmlns:cc="http://creativecommons.org/ns#"
   xmlns:dc="http://purl.org/dc/elements/1.1/">
  <sodipodi:namedview
     id="namedview1"
     pagecolor="#ffffff"
     bordercolor="#000000"
     borderopacity="0.25"
     inkscape:showpageshadow="2"
     inkscape:pageopacity="0.0"
     inkscape:pagecheckerboard="0"
     inkscape:deskcolor="#d1d1d1"
     inkscape:zoom="4.8153972"
     inkscape:cx="58.562147"
     inkscape:cy="44.544612"
     inkscape:window-width="2560"
     inkscape:window-height="1369"
     inkscape:window-x="-8"
     inkscape:window-y="-8"
     inkscape:window-maximized="1"
     inkscape:current-layer="Connectplus_logo" />
  <!-- Generator: Sketch 55.2 (78181) - https://sketchapp.com -->
  <title
     id="title1">fiton</title>
  <desc
     id="desc1">Created with Sketch.</desc>
  <defs
     id="defs1">
    <polygon
       id="path-1"
       points="0.00427062995 0.00981090429 12.1552371 0.00981090429 12.1552371 6.48216994 0.00427062995 6.48216994" />
    <clipPath
       id="00b67c113b">
      <path
         d="m 0,127 h 122.25 v 78.50391 H 0 Z m 0,0"
         clip-rule="nonzero"
         id="path1" />
    </clipPath>
    <clipPath
       id="1817133b5c">
      <path
         d="M 45,109.50391 H 67 V 131 H 45 Z m 0,0"
         clip-rule="nonzero"
         id="path2" />
    </clipPath>
  </defs>
  <g
     id="Connectplus_dashboard"
     stroke="none"
     stroke-width="1"
     fill="none"
     fill-rule="evenodd">
    <g
       id="Connectplus_logo">
      <path
         fill="#100f0d"
         d="m 31.154904,13.674626 c -1.204693,0.318845 -2.724114,0.727916 -4.629036,1.250858 -7.682935,2.109289 -3.041852,6.577515 9.354448,8.074516 0,0 -20.190668,-5.746238 -2.407882,-7.011111 -0.224374,-0.224242 -0.447242,-0.451114 -0.673122,-0.681491 -0.528559,-0.535204 -1.061636,-1.076542 -1.644408,-1.632772"
         fill-opacity="1"
         fill-rule="nonzero"
         id="path3"
         style="stroke-width:0.294018" />
      <g
         clip-path="url(#00b67c113b)"
         id="g4"
         transform="matrix(0.37765446,0,0,0.20674621,8.0235837,-20.199614)">
        <path
           fill="#100f0d"
           d="M 74.433594,156.55469 C 61.511719,125.69922 19.644531,120.01172 0.0390625,138.45312 c 0,0 30.5156255,-20.49609 53.1601565,7.1836 22.648437,27.67969 15.433593,45.78515 69.000001,59.86328 0,0 -31.203126,-9.38672 -47.765626,-48.94531"
           fill-opacity="1"
           fill-rule="nonzero"
           id="path4" />
      </g>
      <g
         clip-path="url(#1817133b5c)"
         id="g5"
         transform="matrix(0.38550202,0,0,0.22424341,8.0232773,-22.438199)">
        <path
           fill="#100f0d"
           d="m 66.863281,120.11719 c 0,5.86328 -4.734375,10.61328 -10.574219,10.61328 -5.839843,0 -10.574218,-4.75 -10.574218,-10.61328 0,-5.85938 4.734375,-10.60938 10.574218,-10.60938 5.839844,0 10.574219,4.75 10.574219,10.60938"
           fill-opacity="1"
           fill-rule="nonzero"
           id="path5" />
      </g>
      <g
         fill="#f36100"
         fill-opacity="1"
         id="g8"
         transform="matrix(0.50105008,0,0,0.30338862,-12.965249,-33.337369)">
        <g
           transform="translate(126.8899,150.46913)"
           id="g7">
          <g
             id="g6">
            <path
               d="m 32.09375,-30.5625 v 6.109375 H 7.640625 v 6.109375 H 32.09375 v 6.125 H 7.640625 V 0 H 1.53125 v -24.453125 c 0,-1.113281 0.269531,-2.132813 0.8125,-3.0625 0.550781,-0.9375 1.289062,-1.675781 2.21875,-2.21875 0.925781,-0.550781 1.953125,-0.828125 3.078125,-0.828125 z m 0,0"
               id="path6" />
          </g>
        </g>
      </g>
      <g
         fill="#f36100"
         fill-opacity="1"
         id="g11"
         transform="matrix(0.50105008,0,0,0.30338862,-12.965249,-33.337369)">
        <g
           transform="translate(160.49866,150.46913)"
           id="g10">
          <g
             id="g9">
            <path
               d="M 32.09375,0 H 1.53125 V -6.109375 H 13.75 v -18.34375 H 1.53125 V -30.5625 h 30.5625 v 6.109375 H 19.859375 v 18.34375 H 32.09375 Z m 0,0"
               id="path8" />
          </g>
        </g>
      </g>
      <g
         fill="#f36100"
         fill-opacity="1"
         id="g14"
         transform="matrix(0.50105008,0,0,0.30338862,-12.965249,-33.337369)">
        <g
           transform="translate(194.10741,150.46913)"
           id="g13">
          <g
             id="g12">
            <path
               d="m 32.09375,-30.5625 v 6.109375 H 19.859375 V 0 H 13.75 V -24.453125 H 1.53125 V -30.5625 Z m 0,0"
               id="path11" />
          </g>
        </g>
      </g>
      <g
         fill="#000000"
         fill-opacity="1"
         id="g17"
         transform="matrix(0.50105008,0,0,0.30338862,-12.965249,-33.337369)">
        <g
           transform="translate(227.7204,150.46913)"
           id="g16">
          <g
             id="g15">
            <path
               d="M 25.984375,0 H 7.640625 C 6.515625,0 5.488281,-0.269531 4.5625,-0.8125 3.632812,-1.363281 2.894531,-2.101562 2.34375,-3.03125 1.800781,-3.96875 1.53125,-4.992188 1.53125,-6.109375 v -18.34375 c 0,-1.113281 0.269531,-2.132813 0.8125,-3.0625 0.550781,-0.9375 1.289062,-1.675781 2.21875,-2.21875 0.925781,-0.550781 1.953125,-0.828125 3.078125,-0.828125 h 18.34375 c 1.113281,0 2.132813,0.277344 3.0625,0.828125 0.9375,0.542969 1.675781,1.28125 2.21875,2.21875 0.550781,0.929687 0.828125,1.949219 0.828125,3.0625 v 18.34375 c 0,1.09375 -0.277344,2.105469 -0.828125,3.03125 -0.542969,0.929687 -1.273437,1.671875 -2.1875,2.234375 C 28.160156,-0.28125 27.128906,0 25.984375,0 Z M 7.640625,-24.453125 v 18.34375 h 18.34375 v -18.34375 z m 0,0"
               id="path14" />
          </g>
        </g>
      </g>
      <g
         fill="#000000"
         fill-opacity="1"
         id="g20"
         transform="matrix(0.50105008,0,0,0.30338862,-12.965249,-33.337369)">
        <g
           transform="translate(261.32916,150.46913)"
           id="g19">
          <g
             id="g18">
            <path
               d="M 7.640625,0 H 1.53125 v -27.5 c 0,-0.84375 0.296875,-1.5625 0.890625,-2.15625 0.601563,-0.601562 1.320313,-0.90625 2.15625,-0.90625 0.84375,0 1.570313,0.308594 2.1875,0.921875 l 19.21875,19.21875 V -30.5625 h 6.109375 v 27.5 c 0,0.84375 -0.304688,1.570312 -0.90625,2.171875 C 30.59375,-0.296875 29.875,0 29.03125,0 28.195312,0 27.472656,-0.304688 26.859375,-0.921875 l -19.21875,-19.21875 z m 0,0"
               id="path17" />
          </g>
        </g>
      </g>
      <g
         fill="#000000"
         fill-opacity="1"
         id="g23"
         transform="matrix(0.50105008,0,0,0.30338862,-12.965249,-33.337369)">
        <g
           transform="translate(141.63456,186.91876)"
           id="g22">
          <g
             id="g21">
            <path
               d="m 7.25,-1.703125 v -2.5 H 3.140625 v 2.921875 l 0.84375,0.046875 V 0 H 0.46875 V -1.171875 L 0.9375,-1.21875 C 1.21875,-1.25 1.359375,-1.382812 1.359375,-1.625 v -6.75 L 0.53125,-8.421875 V -9.65625 h 3.515625 v 1.171875 L 3.578125,-8.4375 c -0.15625,0.023438 -0.273437,0.0625 -0.34375,0.125 -0.0625,0.0625 -0.09375,0.183594 -0.09375,0.359375 v 2.25 H 7.25 V -8.375 L 6.421875,-8.421875 V -9.65625 h 3.5 v 1.171875 L 9.453125,-8.4375 C 9.171875,-8.40625 9.03125,-8.25 9.03125,-7.96875 v 6.6875 l 0.828125,0.046875 V 0 H 6.34375 V -1.171875 L 6.828125,-1.21875 c 0.144531,-0.019531 0.25,-0.0625 0.3125,-0.125 C 7.210938,-1.40625 7.25,-1.523438 7.25,-1.703125 Z m 0,0"
               id="path20" />
          </g>
        </g>
      </g>
      <g
         fill="#000000"
         fill-opacity="1"
         id="g26"
         transform="matrix(0.50105008,0,0,0.30338862,-12.965249,-33.337369)">
        <g
           transform="translate(152.93793,186.91876)"
           id="g25">
          <g
             id="g24">
            <path
               d="M 7.390625,0 H 0.5 V -1.171875 L 0.96875,-1.21875 C 1.25,-1.25 1.390625,-1.382812 1.390625,-1.625 v -6.75 L 0.5625,-8.421875 V -9.65625 H 7.21875 V -7.25 L 5.734375,-7.140625 V -7.71875 C 5.734375,-7.882812 5.707031,-8 5.65625,-8.0625 5.613281,-8.132812 5.5,-8.171875 5.3125,-8.171875 H 3.171875 V -5.6875 h 3.34375 v 1.484375 H 3.171875 V -1.5 H 5.5 c 0.175781,0 0.285156,-0.035156 0.328125,-0.109375 0.050781,-0.070313 0.078125,-0.1875 0.078125,-0.34375 V -2.6875 l 1.484375,0.109375 z m 0,0"
               id="path23" />
          </g>
        </g>
      </g>
      <g
         fill="#000000"
         fill-opacity="1"
         id="g29"
         transform="matrix(0.50105008,0,0,0.30338862,-12.965249,-33.337369)">
        <g
           transform="translate(161.87629,186.91876)"
           id="g28">
          <g
             id="g27">
            <path
               d="M 0.984375,-1.625 3.328125,-8.390625 2.40625,-8.484375 V -9.65625 h 3.328125 l 2.953125,8.375 H 8.703125 L 9.53125,-1.234375 V 0 H 5.796875 V -1.171875 L 6.34375,-1.21875 C 6.507812,-1.238281 6.617188,-1.273438 6.671875,-1.328125 6.734375,-1.390625 6.738281,-1.5 6.6875,-1.65625 L 6.390625,-2.5625 H 2.984375 L 2.5625,-1.28125 3.421875,-1.234375 V 0 H 0.078125 V -1.171875 L 0.546875,-1.21875 C 0.753906,-1.238281 0.898438,-1.375 0.984375,-1.625 Z M 4.6875,-8.03125 3.34375,-3.890625 h 2.6875 L 4.734375,-8.03125 Z m 0,0"
               id="path26" />
          </g>
        </g>
      </g>
      <g
         fill="#000000"
         fill-opacity="1"
         id="g32"
         transform="matrix(0.50105008,0,0,0.30338862,-12.965249,-33.337369)">
        <g
           transform="translate(172.4542,186.91876)"
           id="g31">
          <g
             id="g30">
            <path
               d="M 7.359375,0 H 0.46875 V -1.171875 L 0.9375,-1.21875 C 1.21875,-1.25 1.359375,-1.382812 1.359375,-1.625 v -6.75 L 0.53125,-8.421875 V -9.65625 h 3.5 v 1.171875 L 3.5625,-8.4375 C 3.28125,-8.40625 3.140625,-8.25 3.140625,-7.96875 V -1.5 h 2.40625 c 0.132813,0 0.222656,-0.035156 0.265625,-0.109375 0.039062,-0.070313 0.0625,-0.1875 0.0625,-0.34375 V -2.96875 L 7.359375,-2.875 Z m 0,0"
               id="path29" />
          </g>
        </g>
      </g>
      <g
         fill="#000000"
         fill-opacity="1"
         id="g35"
         transform="matrix(0.50105008,0,0,0.30338862,-12.965249,-33.337369)">
        <g
           transform="translate(181.21845,186.91876)"
           id="g34">
          <g
             id="g33">
            <path
               d="M 3.171875,-1.625 V -8.21875 H 2.03125 c -0.21875,0 -0.328125,0.152344 -0.328125,0.453125 v 0.6875 L 0.21875,-7.1875 V -9.65625 H 7.8125 v 2.46875 l -1.484375,0.109375 v -0.6875 c 0,-0.164063 -0.027344,-0.28125 -0.078125,-0.34375 C 6.207031,-8.179688 6.09375,-8.21875 5.90625,-8.21875 H 4.921875 v 6.9375 L 6.0625,-1.234375 V 0 H 1.96875 V -1.171875 L 2.75,-1.21875 C 3.03125,-1.25 3.171875,-1.382812 3.171875,-1.625 Z m 0,0"
               id="path32" />
          </g>
        </g>
      </g>
      <g
         fill="#000000"
         fill-opacity="1"
         id="g38"
         transform="matrix(0.50105008,0,0,0.30338862,-12.965249,-33.337369)">
        <g
           transform="translate(190.21485,186.91876)"
           id="g37">
          <g
             id="g36">
            <path
               d="m 7.25,-1.703125 v -2.5 H 3.140625 v 2.921875 l 0.84375,0.046875 V 0 H 0.46875 V -1.171875 L 0.9375,-1.21875 C 1.21875,-1.25 1.359375,-1.382812 1.359375,-1.625 v -6.75 L 0.53125,-8.421875 V -9.65625 h 3.515625 v 1.171875 L 3.578125,-8.4375 c -0.15625,0.023438 -0.273437,0.0625 -0.34375,0.125 -0.0625,0.0625 -0.09375,0.183594 -0.09375,0.359375 v 2.25 H 7.25 V -8.375 L 6.421875,-8.421875 V -9.65625 h 3.5 v 1.171875 L 9.453125,-8.4375 C 9.171875,-8.40625 9.03125,-8.25 9.03125,-7.96875 v 6.6875 l 0.828125,0.046875 V 0 H 6.34375 V -1.171875 L 6.828125,-1.21875 c 0.144531,-0.019531 0.25,-0.0625 0.3125,-0.125 C 7.210938,-1.40625 7.25,-1.523438 7.25,-1.703125 Z m 0,0"
               id="path35" />
          </g>
        </g>
      </g>
      <g
         fill="#f36100"
         fill-opacity="1"
         id="g44"
         transform="matrix(0.50105008,0,0,0.30338862,-12.965249,-33.337369)">
        <g
           transform="translate(205.40468,186.91876)"
           id="g43">
          <g
             id="g42">
            <path
               d="m 6.890625,-3.1875 c 0.1875,-0.46875 0.28125,-0.914062 0.28125,-1.34375 0,-0.132812 -0.089844,-0.210938 -0.265625,-0.234375 L 6.4375,-4.796875 v -1.125 H 9.5 V -4.75 l -0.796875,0.03125 c 0,0.929688 -0.203125,1.78125 -0.609375,2.5625 0.4375,0.367188 1.046875,0.828125 1.828125,1.390625 L 8.96875,0.5 C 8.382812,0.101562 7.773438,-0.351562 7.140625,-0.875 6.421875,-0.15625 5.453125,0.203125 4.234375,0.203125 3.015625,0.203125 2.125,-0.0820312 1.5625,-0.65625 1,-1.226562 0.71875,-1.925781 0.71875,-2.75 0.71875,-4.019531 1.3125,-5.023438 2.5,-5.765625 2.195312,-6.253906 2.046875,-6.785156 2.046875,-7.359375 c 0,-0.738281 0.242187,-1.332031 0.734375,-1.78125 0.5,-0.457031 1.195312,-0.6875 2.09375,-0.6875 0.894531,0 1.765625,0.199219 2.609375,0.59375 v 2.1875 L 6.015625,-6.9375 v -0.890625 c 0,-0.269531 -0.105469,-0.4375 -0.3125,-0.5 -0.261719,-0.082031 -0.515625,-0.125 -0.765625,-0.125 -0.78125,0 -1.171875,0.375 -1.171875,1.125 0,0.992187 1.039063,2.371094 3.125,4.140625 z m -0.96875,1.296875 c -1.15625,-0.988281 -2.03125,-1.878906 -2.625,-2.671875 -0.59375,0.417969 -0.890625,0.984375 -0.890625,1.703125 0,0.492187 0.148438,0.890625 0.453125,1.203125 0.3125,0.304688 0.796875,0.453125 1.453125,0.453125 0.664062,0 1.203125,-0.226563 1.609375,-0.6875 z m 0,0"
               id="path41" />
          </g>
        </g>
      </g>
      <g
         fill="#000000"
         fill-opacity="1"
         id="g50"
         transform="matrix(0.50105008,0,0,0.30338862,-12.965249,-33.337369)">
        <g
           transform="translate(220.62369,186.91876)"
           id="g49">
          <g
             id="g48">
            <path
               d="M 0.5,0 V -1.171875 L 0.96875,-1.21875 C 1.25,-1.25 1.390625,-1.382812 1.390625,-1.625 v -6.75 L 0.5625,-8.421875 V -9.65625 H 7.578125 V -7.25 L 6.09375,-7.140625 V -7.71875 C 6.09375,-7.882812 6.066406,-8 6.015625,-8.0625 5.972656,-8.132812 5.859375,-8.171875 5.671875,-8.171875 h -2.5 v 2.5625 h 3.5625 V -4.125 h -3.5625 v 2.84375 l 1.28125,0.046875 V 0 Z m 0,0"
               id="path47" />
          </g>
        </g>
      </g>
      <g
         fill="#000000"
         fill-opacity="1"
         id="g53"
         transform="matrix(0.50105008,0,0,0.30338862,-12.965249,-33.337369)">
        <g
           transform="translate(229.47499,186.91876)"
           id="g52">
          <g
             id="g51">
            <path
               d="M 1.359375,-1.703125 V -8.375 L 0.53125,-8.421875 V -9.65625 h 3.515625 v 1.171875 L 3.578125,-8.4375 C 3.296875,-8.40625 3.15625,-8.25 3.15625,-7.96875 v 6.6875 l 0.828125,0.046875 V 0 H 0.46875 V -1.171875 L 0.9375,-1.21875 c 0.144531,-0.019531 0.25,-0.0625 0.3125,-0.125 0.070312,-0.0625 0.109375,-0.179688 0.109375,-0.359375 z m 0,0"
               id="path50" />
          </g>
        </g>
      </g>
      <g
         fill="#000000"
         fill-opacity="1"
         id="g56"
         transform="matrix(0.50105008,0,0,0.30338862,-12.965249,-33.337369)">
        <g
           transform="translate(234.90211,186.91876)"
           id="g55">
          <g
             id="g54">
            <path
               d="M 3.171875,-1.625 V -8.21875 H 2.03125 c -0.21875,0 -0.328125,0.152344 -0.328125,0.453125 v 0.6875 L 0.21875,-7.1875 V -9.65625 H 7.8125 v 2.46875 l -1.484375,0.109375 v -0.6875 c 0,-0.164063 -0.027344,-0.28125 -0.078125,-0.34375 C 6.207031,-8.179688 6.09375,-8.21875 5.90625,-8.21875 H 4.921875 v 6.9375 L 6.0625,-1.234375 V 0 H 1.96875 V -1.171875 L 2.75,-1.21875 C 3.03125,-1.25 3.171875,-1.382812 3.171875,-1.625 Z m 0,0"
               id="path53" />
          </g>
        </g>
      </g>
      <g
         fill="#000000"
         fill-opacity="1"
         id="g59"
         transform="matrix(0.50105008,0,0,0.30338862,-12.965249,-33.337369)">
        <g
           transform="translate(243.89851,186.91876)"
           id="g58">
          <g
             id="g57">
            <path
               d="M 0.46875,0 V -1.171875 L 0.984375,-1.21875 c 0.25,-0.019531 0.375,-0.15625 0.375,-0.40625 v -6.75 L 0.53125,-8.421875 V -9.65625 h 2.625 l 4.109375,6.671875 H 7.28125 V -8.375 L 6.328125,-8.421875 V -9.65625 H 9.875 v 1.171875 L 9.34375,-8.4375 C 9.113281,-8.414062 9,-8.265625 9,-7.984375 V 0 H 7.296875 l -4.1875,-6.765625 h -0.03125 v 5.484375 l 0.9375,0.046875 V 0 Z m 0,0"
               id="path56" />
          </g>
        </g>
      </g>
      <g
         fill="#000000"
         fill-opacity="1"
         id="g62"
         transform="matrix(0.50105008,0,0,0.30338862,-12.965249,-33.337369)">
        <g
           transform="translate(255.10032,186.91876)"
           id="g61">
          <g
             id="g60">
            <path
               d="M 7.390625,0 H 0.5 V -1.171875 L 0.96875,-1.21875 C 1.25,-1.25 1.390625,-1.382812 1.390625,-1.625 v -6.75 L 0.5625,-8.421875 V -9.65625 H 7.21875 V -7.25 L 5.734375,-7.140625 V -7.71875 C 5.734375,-7.882812 5.707031,-8 5.65625,-8.0625 5.613281,-8.132812 5.5,-8.171875 5.3125,-8.171875 H 3.171875 V -5.6875 h 3.34375 v 1.484375 H 3.171875 V -1.5 H 5.5 c 0.175781,0 0.285156,-0.035156 0.328125,-0.109375 0.050781,-0.070313 0.078125,-0.1875 0.078125,-0.34375 V -2.6875 l 1.484375,0.109375 z m 0,0"
               id="path59" />
          </g>
        </g>
      </g>
      <g
         fill="#000000"
         fill-opacity="1"
         id="g65"
         transform="matrix(0.50105008,0,0,0.30338862,-12.965249,-33.337369)">
        <g
           transform="translate(264.03868,186.91876)"
           id="g64">
          <g
             id="g63">
            <path
               d="m 3.5,-1.3125 c 1.15625,0 1.734375,-0.460938 1.734375,-1.390625 0,-0.476563 -0.257813,-0.835937 -0.765625,-1.078125 -0.273438,-0.132812 -0.625,-0.257812 -1.0625,-0.375 C 2.976562,-4.269531 2.625,-4.382812 2.34375,-4.5 2.0625,-4.625 1.773438,-4.796875 1.484375,-5.015625 0.910156,-5.429688 0.625,-6.082031 0.625,-6.96875 c 0,-0.882812 0.304688,-1.582031 0.921875,-2.09375 0.613281,-0.507812 1.414063,-0.765625 2.40625,-0.765625 0.988281,0 1.910156,0.199219 2.765625,0.59375 v 2.1875 l -1.484375,0.09375 v -0.84375 c 0,-0.144531 -0.015625,-0.25 -0.046875,-0.3125 -0.117188,-0.1875 -0.460938,-0.28125 -1.03125,-0.28125 -0.574219,0 -1,0.105469 -1.28125,0.3125 -0.273438,0.199219 -0.40625,0.511719 -0.40625,0.9375 0,0.3125 0.113281,0.585937 0.34375,0.8125 0.15625,0.15625 0.382812,0.289063 0.6875,0.390625 0.3125,0.09375 0.640625,0.199219 0.984375,0.3125 0.34375,0.105469 0.644531,0.21875 0.90625,0.34375 0.269531,0.125 0.550781,0.296875 0.84375,0.515625 0.582031,0.4375 0.875,1.117187 0.875,2.03125 0,0.90625 -0.328125,1.621094 -0.984375,2.140625 -0.648438,0.5234375 -1.507812,0.78125 -2.578125,0.78125 -1.074219,0 -2.03125,-0.1953125 -2.875,-0.59375 v -2.296875 l 1.46875,-0.09375 v 0.875 c 0,0.148437 0.019531,0.257813 0.0625,0.328125 0.039063,0.0625 0.160156,0.125 0.359375,0.1875 0.195312,0.0625 0.507812,0.09375 0.9375,0.09375 z m 0,0"
               id="path62" />
          </g>
        </g>
      </g>
      <g
         fill="#000000"
         fill-opacity="1"
         id="g68"
         transform="matrix(0.50105008,0,0,0.30338862,-12.965249,-33.337369)">
        <g
           transform="translate(272.5853,186.91876)"
           id="g67">
          <g
             id="g66">
            <path
               d="m 3.5,-1.3125 c 1.15625,0 1.734375,-0.460938 1.734375,-1.390625 0,-0.476563 -0.257813,-0.835937 -0.765625,-1.078125 -0.273438,-0.132812 -0.625,-0.257812 -1.0625,-0.375 C 2.976562,-4.269531 2.625,-4.382812 2.34375,-4.5 2.0625,-4.625 1.773438,-4.796875 1.484375,-5.015625 0.910156,-5.429688 0.625,-6.082031 0.625,-6.96875 c 0,-0.882812 0.304688,-1.582031 0.921875,-2.09375 0.613281,-0.507812 1.414063,-0.765625 2.40625,-0.765625 0.988281,0 1.910156,0.199219 2.765625,0.59375 v 2.1875 l -1.484375,0.09375 v -0.84375 c 0,-0.144531 -0.015625,-0.25 -0.046875,-0.3125 -0.117188,-0.1875 -0.460938,-0.28125 -1.03125,-0.28125 -0.574219,0 -1,0.105469 -1.28125,0.3125 -0.273438,0.199219 -0.40625,0.511719 -0.40625,0.9375 0,0.3125 0.113281,0.585937 0.34375,0.8125 0.15625,0.15625 0.382812,0.289063 0.6875,0.390625 0.3125,0.09375 0.640625,0.199219 0.984375,0.3125 0.34375,0.105469 0.644531,0.21875 0.90625,0.34375 0.269531,0.125 0.550781,0.296875 0.84375,0.515625 0.582031,0.4375 0.875,1.117187 0.875,2.03125 0,0.90625 -0.328125,1.621094 -0.984375,2.140625 -0.648438,0.5234375 -1.507812,0.78125 -2.578125,0.78125 -1.074219,0 -2.03125,-0.1953125 -2.875,-0.59375 v -2.296875 l 1.46875,-0.09375 v 0.875 c 0,0.148437 0.019531,0.257813 0.0625,0.328125 0.039063,0.0625 0.160156,0.125 0.359375,0.1875 0.195312,0.0625 0.507812,0.09375 0.9375,0.09375 z m 0,0"
               id="path65" />
          </g>
        </g>
      </g>
      <path
         stroke-linecap="butt"
         fill="none"
         stroke-linejoin="miter"
         d="M 52.282823,16.158825 H 132.71507"
         stroke="#f36100"
         stroke-width="1.16966"
         stroke-opacity="1"
         stroke-miterlimit="4"
         id="path68" />
    </g>
  </g>
  <metadata
     id="metadata1">
    <rdf:RDF>
      <cc:Work
         rdf:about="">
        <dc:title>fiton</dc:title>
      </cc:Work>
    </rdf:RDF>
  </metadata>
</svg>
