<svg xmlns="http://www.w3.org/2000/svg" xmlns:xlink="http://www.w3.org/1999/xlink" width="2400" zoomAndPan="magnify" viewBox="0 0 1800 1124.99995" height="1500" preserveAspectRatio="xMidYMid meet" version="1.0"><defs><g/><clipPath id="882402d3b7"><path d="M 27.792969 388 L 750 388 L 750 844.777344 L 27.792969 844.777344 Z M 27.792969 388 " clip-rule="nonzero"/></clipPath><clipPath id="70f9a0977f"><path d="M 297 280.027344 L 423 280.027344 L 423 405 L 297 405 Z M 297 280.027344 " clip-rule="nonzero"/></clipPath></defs><path fill="#100f0d" d="M 382.28125 583.21875 C 363.828125 591.59375 340.546875 602.328125 311.355469 616.039062 C 193.601562 671.367188 264.734375 788.582031 454.703125 827.871094 C 454.703125 827.871094 145.257812 677.121094 417.820312 643.945312 C 414.382812 638.0625 410.957031 632.105469 407.484375 626.0625 C 399.402344 612.027344 391.230469 597.804688 382.28125 583.21875 " fill-opacity="1" fill-rule="nonzero"/><g clip-path="url(#882402d3b7)"><path fill="#100f0d" d="M 467.539062 556.816406 C 391.195312 375.296875 143.835938 341.839844 27.996094 450.320312 C 27.996094 450.320312 208.296875 329.761719 342.097656 492.597656 C 475.894531 655.429688 433.285156 761.925781 749.753906 844.761719 C 749.753906 844.761719 565.414062 789.542969 467.539062 556.816406 " fill-opacity="1" fill-rule="nonzero"/></g><g clip-path="url(#70f9a0977f)"><path fill="#100f0d" d="M 422.824219 342.472656 C 422.824219 376.953125 394.84375 404.90625 360.34375 404.90625 C 325.835938 404.90625 297.871094 376.953125 297.871094 342.472656 C 297.871094 307.992188 325.835938 280.046875 360.34375 280.046875 C 394.84375 280.046875 422.824219 307.992188 422.824219 342.472656 " fill-opacity="1" fill-rule="nonzero"/></g><g fill="#f36100" fill-opacity="1"><g transform="translate(788.305244, 503.467998)"><g><path d="M 189.125 -180.109375 L 189.125 -144.09375 L 45.03125 -144.09375 L 45.03125 -108.0625 L 189.125 -108.0625 L 189.125 -72.046875 L 45.03125 -72.046875 L 45.03125 0 L 9 0 L 9 -144.09375 C 9 -150.695312 10.613281 -156.738281 13.84375 -162.21875 C 17.070312 -167.695312 21.425781 -172.046875 26.90625 -175.265625 C 32.382812 -178.492188 38.425781 -180.109375 45.03125 -180.109375 Z M 189.125 -180.109375 "/></g></g></g><g fill="#f36100" fill-opacity="1"><g transform="translate(986.38006, 503.467998)"><g><path d="M 189.125 0 L 9 0 L 9 -36.015625 L 81.046875 -36.015625 L 81.046875 -144.09375 L 9 -144.09375 L 9 -180.109375 L 189.125 -180.109375 L 189.125 -144.09375 L 117.078125 -144.09375 L 117.078125 -36.015625 L 189.125 -36.015625 Z M 189.125 0 "/></g></g></g><g fill="#f36100" fill-opacity="1"><g transform="translate(1184.454875, 503.467998)"><g><path d="M 189.125 -180.109375 L 189.125 -144.09375 L 117.078125 -144.09375 L 117.078125 0 L 81.046875 0 L 81.046875 -144.09375 L 9 -144.09375 L 9 -180.109375 Z M 189.125 -180.109375 "/></g></g></g><g fill="#000000" fill-opacity="1"><g transform="translate(1382.554592, 503.467998)"><g><path d="M 153.09375 0 L 45.03125 0 C 38.425781 0 32.382812 -1.613281 26.90625 -4.84375 C 21.425781 -8.070312 17.070312 -12.421875 13.84375 -17.890625 C 10.613281 -23.367188 9 -29.410156 9 -36.015625 L 9 -144.09375 C 9 -150.695312 10.613281 -156.738281 13.84375 -162.21875 C 17.070312 -167.695312 21.425781 -172.046875 26.90625 -175.265625 C 32.382812 -178.492188 38.425781 -180.109375 45.03125 -180.109375 L 153.09375 -180.109375 C 159.695312 -180.109375 165.738281 -178.492188 171.21875 -175.265625 C 176.695312 -172.046875 181.050781 -167.695312 184.28125 -162.21875 C 187.507812 -156.738281 189.125 -150.695312 189.125 -144.09375 L 189.125 -36.015625 C 189.125 -29.566406 187.507812 -23.601562 184.28125 -18.125 C 181.050781 -12.644531 176.734375 -8.253906 171.328125 -4.953125 C 165.929688 -1.648438 159.851562 0 153.09375 0 Z M 45.03125 -144.09375 L 45.03125 -36.015625 L 153.09375 -36.015625 L 153.09375 -144.09375 Z M 45.03125 -144.09375 "/></g></g></g><g fill="#000000" fill-opacity="1"><g transform="translate(1580.629408, 503.467998)"><g><path d="M 45.03125 0 L 9 0 L 9 -162.09375 C 9 -167.050781 10.765625 -171.289062 14.296875 -174.8125 C 17.828125 -178.34375 22.066406 -180.109375 27.015625 -180.109375 C 31.972656 -180.109375 36.25 -178.304688 39.84375 -174.703125 L 153.09375 -61.46875 L 153.09375 -180.109375 L 189.125 -180.109375 L 189.125 -18.015625 C 189.125 -13.054688 187.359375 -8.8125 183.828125 -5.28125 C 180.296875 -1.757812 176.054688 0 171.109375 0 C 166.148438 0 161.875 -1.800781 158.28125 -5.40625 L 45.03125 -118.65625 Z M 45.03125 0 "/></g></g></g><g fill="#000000" fill-opacity="1"><g transform="translate(875.348175, 718.285622)"><g><path d="M 42.671875 -10 L 42.671875 -24.796875 L 18.46875 -24.796875 L 18.46875 -7.53125 L 23.4375 -7.265625 L 23.4375 0 L 2.734375 0 L 2.734375 -6.921875 L 5.5625 -7.1875 C 7.207031 -7.351562 8.03125 -8.148438 8.03125 -9.578125 L 8.03125 -49.34375 L 3.171875 -49.59375 L 3.171875 -56.875 L 23.859375 -56.875 L 23.859375 -49.9375 L 21.03125 -49.6875 C 20.125 -49.570312 19.46875 -49.328125 19.0625 -48.953125 C 18.664062 -48.585938 18.46875 -47.890625 18.46875 -46.859375 L 18.46875 -33.609375 L 42.671875 -33.609375 L 42.671875 -49.34375 L 37.796875 -49.59375 L 37.796875 -56.875 L 58.5 -56.875 L 58.5 -49.9375 L 55.671875 -49.6875 C 54.015625 -49.507812 53.1875 -48.597656 53.1875 -46.953125 L 53.1875 -7.53125 L 58.0625 -7.265625 L 58.0625 0 L 37.375 0 L 37.375 -6.921875 L 40.1875 -7.1875 C 41.039062 -7.300781 41.664062 -7.539062 42.0625 -7.90625 C 42.46875 -8.28125 42.671875 -8.976562 42.671875 -10 Z M 42.671875 -10 "/></g></g></g><g fill="#000000" fill-opacity="1"><g transform="translate(941.965121, 718.285622)"><g><path d="M 43.53125 0 L 2.90625 0 L 2.90625 -6.921875 L 5.734375 -7.1875 C 7.378906 -7.351562 8.203125 -8.148438 8.203125 -9.578125 L 8.203125 -49.34375 L 3.328125 -49.59375 L 3.328125 -56.875 L 42.5 -56.875 L 42.5 -42.671875 L 33.78125 -42.078125 L 33.78125 -45.5 C 33.78125 -46.46875 33.632812 -47.148438 33.34375 -47.546875 C 33.0625 -47.941406 32.378906 -48.140625 31.296875 -48.140625 L 18.640625 -48.140625 L 18.640625 -33.515625 L 38.390625 -33.515625 L 38.390625 -24.796875 L 18.640625 -24.796875 L 18.640625 -8.8125 L 32.40625 -8.8125 C 33.4375 -8.8125 34.09375 -9.023438 34.375 -9.453125 C 34.664062 -9.878906 34.8125 -10.578125 34.8125 -11.546875 L 34.8125 -15.828125 L 43.53125 -15.21875 Z M 43.53125 0 "/></g></g></g><g fill="#000000" fill-opacity="1"><g transform="translate(994.64379, 718.285622)"><g><path d="M 5.8125 -9.578125 L 19.578125 -49.421875 L 14.203125 -49.9375 L 14.203125 -56.875 L 33.78125 -56.875 L 51.21875 -7.53125 L 51.3125 -7.53125 L 56.1875 -7.265625 L 56.1875 0 L 34.125 0 L 34.125 -6.921875 L 37.375 -7.1875 C 38.34375 -7.300781 38.992188 -7.523438 39.328125 -7.859375 C 39.671875 -8.203125 39.703125 -8.832031 39.421875 -9.75 L 37.625 -15.046875 L 17.609375 -15.046875 L 15.046875 -7.53125 L 20.1875 -7.265625 L 20.1875 0 L 0.421875 0 L 0.421875 -6.921875 L 3.25 -7.1875 C 4.445312 -7.300781 5.300781 -8.097656 5.8125 -9.578125 Z M 27.625 -47.296875 L 19.671875 -22.921875 L 35.578125 -22.921875 L 27.875 -47.296875 Z M 27.625 -47.296875 "/></g></g></g><g fill="#000000" fill-opacity="1"><g transform="translate(1056.985193, 718.285622)"><g><path d="M 43.359375 0 L 2.734375 0 L 2.734375 -6.921875 L 5.5625 -7.1875 C 7.207031 -7.351562 8.03125 -8.148438 8.03125 -9.578125 L 8.03125 -49.34375 L 3.171875 -49.59375 L 3.171875 -56.875 L 23.765625 -56.875 L 23.765625 -49.9375 L 20.953125 -49.6875 C 19.296875 -49.507812 18.46875 -48.597656 18.46875 -46.953125 L 18.46875 -8.8125 L 32.671875 -8.8125 C 33.460938 -8.8125 33.988281 -9.023438 34.25 -9.453125 C 34.507812 -9.878906 34.640625 -10.578125 34.640625 -11.546875 L 34.640625 -17.53125 L 43.359375 -16.9375 Z M 43.359375 0 "/></g></g></g><g fill="#000000" fill-opacity="1"><g transform="translate(1108.637756, 718.285622)"><g><path d="M 18.640625 -9.578125 L 18.640625 -48.40625 L 11.96875 -48.40625 C 10.65625 -48.40625 10 -47.519531 10 -45.75 L 10 -41.734375 L 1.28125 -42.328125 L 1.28125 -56.875 L 46 -56.875 L 46 -42.328125 L 37.28125 -41.734375 L 37.28125 -45.75 C 37.28125 -46.71875 37.140625 -47.398438 36.859375 -47.796875 C 36.578125 -48.203125 35.894531 -48.40625 34.8125 -48.40625 L 28.984375 -48.40625 L 28.984375 -7.53125 L 35.75 -7.265625 L 35.75 0 L 11.625 0 L 11.625 -6.921875 L 16.15625 -7.1875 C 17.8125 -7.351562 18.640625 -8.148438 18.640625 -9.578125 Z M 18.640625 -9.578125 "/></g></g></g><g fill="#000000" fill-opacity="1"><g transform="translate(1161.658452, 718.285622)"><g><path d="M 42.671875 -10 L 42.671875 -24.796875 L 18.46875 -24.796875 L 18.46875 -7.53125 L 23.4375 -7.265625 L 23.4375 0 L 2.734375 0 L 2.734375 -6.921875 L 5.5625 -7.1875 C 7.207031 -7.351562 8.03125 -8.148438 8.03125 -9.578125 L 8.03125 -49.34375 L 3.171875 -49.59375 L 3.171875 -56.875 L 23.859375 -56.875 L 23.859375 -49.9375 L 21.03125 -49.6875 C 20.125 -49.570312 19.46875 -49.328125 19.0625 -48.953125 C 18.664062 -48.585938 18.46875 -47.890625 18.46875 -46.859375 L 18.46875 -33.609375 L 42.671875 -33.609375 L 42.671875 -49.34375 L 37.796875 -49.59375 L 37.796875 -56.875 L 58.5 -56.875 L 58.5 -49.9375 L 55.671875 -49.6875 C 54.015625 -49.507812 53.1875 -48.597656 53.1875 -46.953125 L 53.1875 -7.53125 L 58.0625 -7.265625 L 58.0625 0 L 37.375 0 L 37.375 -6.921875 L 40.1875 -7.1875 C 41.039062 -7.300781 41.664062 -7.539062 42.0625 -7.90625 C 42.46875 -8.28125 42.671875 -8.976562 42.671875 -10 Z M 42.671875 -10 "/></g></g></g><g fill="#000000" fill-opacity="1"><g transform="translate(1228.275394, 718.285622)"><g/></g></g><g fill="#f36100" fill-opacity="1"><g transform="translate(1251.180477, 718.285622)"><g><path d="M 40.625 -18.8125 C 41.707031 -21.550781 42.25 -24.175781 42.25 -26.6875 C 42.25 -27.476562 41.734375 -27.929688 40.703125 -28.046875 L 37.96875 -28.21875 L 37.96875 -34.890625 L 56.015625 -34.890625 L 56.015625 -27.96875 L 51.3125 -27.796875 C 51.3125 -22.316406 50.113281 -17.296875 47.71875 -12.734375 C 50.28125 -10.578125 53.875 -7.84375 58.5 -4.53125 L 52.84375 2.90625 C 49.425781 0.625 45.835938 -2.050781 42.078125 -5.125 C 37.859375 -0.90625 32.15625 1.203125 24.96875 1.203125 C 17.789062 1.203125 12.546875 -0.476562 9.234375 -3.84375 C 5.929688 -7.207031 4.28125 -11.3125 4.28125 -16.15625 C 4.28125 -23.6875 7.753906 -29.617188 14.703125 -33.953125 C 12.941406 -36.859375 12.0625 -39.992188 12.0625 -43.359375 C 12.0625 -47.691406 13.515625 -51.195312 16.421875 -53.875 C 19.328125 -56.550781 23.414062 -57.890625 28.6875 -57.890625 C 33.957031 -57.890625 39.101562 -56.722656 44.125 -54.390625 L 44.125 -41.46875 L 35.40625 -40.875 L 35.40625 -46.09375 C 35.40625 -47.6875 34.804688 -48.6875 33.609375 -49.09375 C 32.066406 -49.539062 30.554688 -49.765625 29.078125 -49.765625 C 24.460938 -49.765625 22.15625 -47.570312 22.15625 -43.1875 C 22.15625 -37.375 28.3125 -29.25 40.625 -18.8125 Z M 34.890625 -11.109375 C 28.046875 -16.929688 22.882812 -22.179688 19.40625 -26.859375 C 15.9375 -24.398438 14.203125 -21.0625 14.203125 -16.84375 C 14.203125 -13.9375 15.097656 -11.582031 16.890625 -9.78125 C 18.679688 -7.988281 21.53125 -7.09375 25.4375 -7.09375 C 29.34375 -7.09375 32.492188 -8.429688 34.890625 -11.109375 Z M 34.890625 -11.109375 "/></g></g></g><g fill="#000000" fill-opacity="1"><g transform="translate(1318.03916, 718.285622)"><g/></g></g><g fill="#000000" fill-opacity="1"><g transform="translate(1340.874425, 718.285622)"><g><path d="M 2.90625 0 L 2.90625 -6.921875 L 5.734375 -7.1875 C 7.378906 -7.351562 8.203125 -8.148438 8.203125 -9.578125 L 8.203125 -49.34375 L 3.328125 -49.59375 L 3.328125 -56.875 L 44.640625 -56.875 L 44.640625 -42.671875 L 35.921875 -42.078125 L 35.921875 -45.5 C 35.921875 -46.46875 35.773438 -47.148438 35.484375 -47.546875 C 35.203125 -47.941406 34.519531 -48.140625 33.4375 -48.140625 L 18.640625 -48.140625 L 18.640625 -33.015625 L 39.671875 -33.015625 L 39.671875 -24.28125 L 18.640625 -24.28125 L 18.640625 -7.53125 L 26.25 -7.265625 L 26.25 0 Z M 2.90625 0 "/></g></g></g><g fill="#000000" fill-opacity="1"><g transform="translate(1393.039999, 718.285622)"><g><path d="M 8.03125 -10 L 8.03125 -49.34375 L 3.171875 -49.59375 L 3.171875 -56.875 L 23.859375 -56.875 L 23.859375 -49.9375 L 21.03125 -49.6875 C 19.382812 -49.507812 18.5625 -48.597656 18.5625 -46.953125 L 18.5625 -7.53125 L 23.4375 -7.265625 L 23.4375 0 L 2.734375 0 L 2.734375 -6.921875 L 5.5625 -7.1875 C 6.414062 -7.300781 7.039062 -7.539062 7.4375 -7.90625 C 7.832031 -8.28125 8.03125 -8.976562 8.03125 -10 Z M 8.03125 -10 "/></g></g></g><g fill="#000000" fill-opacity="1"><g transform="translate(1425.024982, 718.285622)"><g><path d="M 18.640625 -9.578125 L 18.640625 -48.40625 L 11.96875 -48.40625 C 10.65625 -48.40625 10 -47.519531 10 -45.75 L 10 -41.734375 L 1.28125 -42.328125 L 1.28125 -56.875 L 46 -56.875 L 46 -42.328125 L 37.28125 -41.734375 L 37.28125 -45.75 C 37.28125 -46.71875 37.140625 -47.398438 36.859375 -47.796875 C 36.578125 -48.203125 35.894531 -48.40625 34.8125 -48.40625 L 28.984375 -48.40625 L 28.984375 -7.53125 L 35.75 -7.265625 L 35.75 0 L 11.625 0 L 11.625 -6.921875 L 16.15625 -7.1875 C 17.8125 -7.351562 18.640625 -8.148438 18.640625 -9.578125 Z M 18.640625 -9.578125 "/></g></g></g><g fill="#000000" fill-opacity="1"><g transform="translate(1478.045689, 718.285622)"><g><path d="M 2.734375 0 L 2.734375 -6.921875 L 5.8125 -7.1875 C 7.289062 -7.300781 8.03125 -8.097656 8.03125 -9.578125 L 8.03125 -49.34375 L 3.171875 -49.59375 L 3.171875 -56.875 L 18.5625 -56.875 L 42.765625 -17.609375 L 42.921875 -17.609375 L 42.921875 -49.34375 L 37.28125 -49.59375 L 37.28125 -56.875 L 58.15625 -56.875 L 58.15625 -49.9375 L 55.078125 -49.6875 C 53.703125 -49.570312 53.015625 -48.6875 53.015625 -47.03125 L 53.015625 0 L 43.015625 0 L 18.296875 -39.84375 L 18.125 -39.84375 L 18.125 -7.53125 L 23.6875 -7.265625 L 23.6875 0 Z M 2.734375 0 "/></g></g></g><g fill="#000000" fill-opacity="1"><g transform="translate(1544.064094, 718.285622)"><g><path d="M 43.53125 0 L 2.90625 0 L 2.90625 -6.921875 L 5.734375 -7.1875 C 7.378906 -7.351562 8.203125 -8.148438 8.203125 -9.578125 L 8.203125 -49.34375 L 3.328125 -49.59375 L 3.328125 -56.875 L 42.5 -56.875 L 42.5 -42.671875 L 33.78125 -42.078125 L 33.78125 -45.5 C 33.78125 -46.46875 33.632812 -47.148438 33.34375 -47.546875 C 33.0625 -47.941406 32.378906 -48.140625 31.296875 -48.140625 L 18.640625 -48.140625 L 18.640625 -33.515625 L 38.390625 -33.515625 L 38.390625 -24.796875 L 18.640625 -24.796875 L 18.640625 -8.8125 L 32.40625 -8.8125 C 33.4375 -8.8125 34.09375 -9.023438 34.375 -9.453125 C 34.664062 -9.878906 34.8125 -10.578125 34.8125 -11.546875 L 34.8125 -15.828125 L 43.53125 -15.21875 Z M 43.53125 0 "/></g></g></g><g fill="#000000" fill-opacity="1"><g transform="translate(1596.742757, 718.285622)"><g><path d="M 20.609375 -7.703125 C 27.453125 -7.703125 30.875 -10.4375 30.875 -15.90625 C 30.875 -18.757812 29.363281 -20.867188 26.34375 -22.234375 C 24.738281 -23.035156 22.664062 -23.773438 20.125 -24.453125 C 17.59375 -25.140625 15.484375 -25.835938 13.796875 -26.546875 C 12.117188 -27.265625 10.425781 -28.25 8.71875 -29.5 C 5.351562 -32.007812 3.671875 -35.875 3.671875 -41.09375 C 3.671875 -46.3125 5.476562 -50.414062 9.09375 -53.40625 C 12.71875 -56.394531 17.453125 -57.890625 23.296875 -57.890625 C 29.140625 -57.890625 34.570312 -56.722656 39.59375 -54.390625 L 39.59375 -41.5625 L 30.875 -40.96875 L 30.875 -45.921875 C 30.875 -46.773438 30.757812 -47.398438 30.53125 -47.796875 C 29.90625 -48.878906 27.894531 -49.421875 24.5 -49.421875 C 21.101562 -49.421875 18.59375 -48.820312 16.96875 -47.625 C 15.34375 -46.4375 14.53125 -44.585938 14.53125 -42.078125 C 14.53125 -40.253906 15.21875 -38.65625 16.59375 -37.28125 C 17.5 -36.375 18.847656 -35.617188 20.640625 -35.015625 C 22.441406 -34.421875 24.351562 -33.804688 26.375 -33.171875 C 28.40625 -32.546875 30.203125 -31.863281 31.765625 -31.125 C 33.335938 -30.382812 34.976562 -29.359375 36.6875 -28.046875 C 40.164062 -25.484375 41.90625 -21.519531 41.90625 -16.15625 C 41.90625 -10.800781 39.976562 -6.582031 36.125 -3.5 C 32.28125 -0.425781 27.207031 1.109375 20.90625 1.109375 C 14.601562 1.109375 8.945312 -0.0546875 3.9375 -2.390625 L 3.9375 -15.90625 L 12.65625 -16.5 L 12.65625 -11.28125 C 12.65625 -10.425781 12.769531 -9.800781 13 -9.40625 C 13.226562 -9.007812 13.925781 -8.625 15.09375 -8.25 C 16.257812 -7.882812 18.097656 -7.703125 20.609375 -7.703125 Z M 20.609375 -7.703125 "/></g></g></g><g fill="#000000" fill-opacity="1"><g transform="translate(1647.112629, 718.285622)"><g><path d="M 20.609375 -7.703125 C 27.453125 -7.703125 30.875 -10.4375 30.875 -15.90625 C 30.875 -18.757812 29.363281 -20.867188 26.34375 -22.234375 C 24.738281 -23.035156 22.664062 -23.773438 20.125 -24.453125 C 17.59375 -25.140625 15.484375 -25.835938 13.796875 -26.546875 C 12.117188 -27.265625 10.425781 -28.25 8.71875 -29.5 C 5.351562 -32.007812 3.671875 -35.875 3.671875 -41.09375 C 3.671875 -46.3125 5.476562 -50.414062 9.09375 -53.40625 C 12.71875 -56.394531 17.453125 -57.890625 23.296875 -57.890625 C 29.140625 -57.890625 34.570312 -56.722656 39.59375 -54.390625 L 39.59375 -41.5625 L 30.875 -40.96875 L 30.875 -45.921875 C 30.875 -46.773438 30.757812 -47.398438 30.53125 -47.796875 C 29.90625 -48.878906 27.894531 -49.421875 24.5 -49.421875 C 21.101562 -49.421875 18.59375 -48.820312 16.96875 -47.625 C 15.34375 -46.4375 14.53125 -44.585938 14.53125 -42.078125 C 14.53125 -40.253906 15.21875 -38.65625 16.59375 -37.28125 C 17.5 -36.375 18.847656 -35.617188 20.640625 -35.015625 C 22.441406 -34.421875 24.351562 -33.804688 26.375 -33.171875 C 28.40625 -32.546875 30.203125 -31.863281 31.765625 -31.125 C 33.335938 -30.382812 34.976562 -29.359375 36.6875 -28.046875 C 40.164062 -25.484375 41.90625 -21.519531 41.90625 -16.15625 C 41.90625 -10.800781 39.976562 -6.582031 36.125 -3.5 C 32.28125 -0.425781 27.207031 1.109375 20.90625 1.109375 C 14.601562 1.109375 8.945312 -0.0546875 3.9375 -2.390625 L 3.9375 -15.90625 L 12.65625 -16.5 L 12.65625 -11.28125 C 12.65625 -10.425781 12.769531 -9.800781 13 -9.40625 C 13.226562 -9.007812 13.925781 -8.625 15.09375 -8.25 C 16.257812 -7.882812 18.097656 -7.703125 20.609375 -7.703125 Z M 20.609375 -7.703125 "/></g></g></g><path stroke-linecap="butt" transform="matrix(0.75, 0, 0, 0.75, 822.267857, 570.302283)" fill="none" stroke-linejoin="miter" d="M 0.00223208 10.497999 L 1230.24713 10.497999 " stroke="#f36100" stroke-width="21" stroke-opacity="1" stroke-miterlimit="4"/></svg>