<svg xmlns="http://www.w3.org/2000/svg" xmlns:xlink="http://www.w3.org/1999/xlink" width="185" zoomAndPan="magnify" viewBox="0 0 138.75 33.749998" height="45" preserveAspectRatio="xMidYMid meet" version="1.0"><defs><g/><clipPath id="b9f80ca7d6"><path d="M 4.699219 6 L 47.878906 6 L 47.878906 33.5 L 4.699219 33.5 Z M 4.699219 6 " clip-rule="nonzero"/></clipPath></defs><path fill="#ffffff" d="M 25.710938 17.984375 C 24.617188 18.484375 23.234375 19.121094 21.503906 19.933594 C 14.523438 23.214844 18.742188 30.167969 30.003906 32.5 C 30.003906 32.5 11.660156 23.554688 27.816406 21.589844 C 27.613281 21.238281 27.410156 20.886719 27.203125 20.527344 C 26.722656 19.695312 26.238281 18.851562 25.710938 17.984375 " fill-opacity="1" fill-rule="nonzero"/><g clip-path="url(#b9f80ca7d6)"><path fill="#ffffff" d="M 30.761719 16.417969 C 26.238281 5.652344 11.574219 3.667969 4.707031 10.101562 C 4.707031 10.101562 15.394531 2.949219 23.328125 12.609375 C 31.257812 22.269531 28.734375 28.585938 47.492188 33.5 C 47.492188 33.5 36.566406 30.226562 30.761719 16.417969 " fill-opacity="1" fill-rule="nonzero"/></g><path fill="#ffffff" d="M 28.113281 3.703125 C 28.113281 5.75 26.453125 7.40625 24.410156 7.40625 C 22.363281 7.40625 20.707031 5.75 20.707031 3.703125 C 20.707031 1.660156 22.363281 0 24.410156 0 C 26.453125 0 28.113281 1.660156 28.113281 3.703125 " fill-opacity="1" fill-rule="nonzero"/><g fill="#f36100" fill-opacity="1"><g transform="translate(45.756742, 15.464587)"><g><path d="M 13.921875 -13.265625 L 13.921875 -10.609375 L 3.3125 -10.609375 L 3.3125 -7.953125 L 13.921875 -7.953125 L 13.921875 -5.3125 L 3.3125 -5.3125 L 3.3125 0 L 0.65625 0 L 0.65625 -10.609375 C 0.65625 -11.097656 0.773438 -11.539062 1.015625 -11.9375 C 1.253906 -12.34375 1.578125 -12.664062 1.984375 -12.90625 C 2.390625 -13.144531 2.832031 -13.265625 3.3125 -13.265625 Z M 13.921875 -13.265625 "/></g></g></g><g fill="#f36100" fill-opacity="1"><g transform="translate(60.344034, 15.464587)"><g><path d="M 13.921875 0 L 0.65625 0 L 0.65625 -2.65625 L 5.96875 -2.65625 L 5.96875 -10.609375 L 0.65625 -10.609375 L 0.65625 -13.265625 L 13.921875 -13.265625 L 13.921875 -10.609375 L 8.625 -10.609375 L 8.625 -2.65625 L 13.921875 -2.65625 Z M 13.921875 0 "/></g></g></g><g fill="#f36100" fill-opacity="1"><g transform="translate(74.931325, 15.464587)"><g><path d="M 13.921875 -13.265625 L 13.921875 -10.609375 L 8.625 -10.609375 L 8.625 0 L 5.96875 0 L 5.96875 -10.609375 L 0.65625 -10.609375 L 0.65625 -13.265625 Z M 13.921875 -13.265625 "/></g></g></g><g fill="#ffffff" fill-opacity="1"><g transform="translate(89.530146, 15.464587)"><g><path d="M 11.265625 0 L 3.3125 0 C 2.832031 0 2.390625 -0.117188 1.984375 -0.359375 C 1.578125 -0.597656 1.253906 -0.914062 1.015625 -1.3125 C 0.773438 -1.71875 0.65625 -2.164062 0.65625 -2.65625 L 0.65625 -10.609375 C 0.65625 -11.097656 0.773438 -11.539062 1.015625 -11.9375 C 1.253906 -12.34375 1.578125 -12.664062 1.984375 -12.90625 C 2.390625 -13.144531 2.832031 -13.265625 3.3125 -13.265625 L 11.265625 -13.265625 C 11.753906 -13.265625 12.203125 -13.144531 12.609375 -12.90625 C 13.015625 -12.664062 13.332031 -12.34375 13.5625 -11.9375 C 13.800781 -11.539062 13.921875 -11.097656 13.921875 -10.609375 L 13.921875 -2.65625 C 13.921875 -2.175781 13.800781 -1.734375 13.5625 -1.328125 C 13.332031 -0.929688 13.015625 -0.609375 12.609375 -0.359375 C 12.210938 -0.117188 11.765625 0 11.265625 0 Z M 3.3125 -10.609375 L 3.3125 -2.65625 L 11.265625 -2.65625 L 11.265625 -10.609375 Z M 3.3125 -10.609375 "/></g></g></g><g fill="#ffffff" fill-opacity="1"><g transform="translate(104.117438, 15.464587)"><g><path d="M 3.3125 0 L 0.65625 0 L 0.65625 -11.9375 C 0.65625 -12.300781 0.785156 -12.613281 1.046875 -12.875 C 1.304688 -13.132812 1.617188 -13.265625 1.984375 -13.265625 C 2.347656 -13.265625 2.664062 -13.128906 2.9375 -12.859375 L 11.265625 -4.53125 L 11.265625 -13.265625 L 13.921875 -13.265625 L 13.921875 -1.328125 C 13.921875 -0.960938 13.789062 -0.648438 13.53125 -0.390625 C 13.269531 -0.128906 12.957031 0 12.59375 0 C 12.226562 0 11.914062 -0.128906 11.65625 -0.390625 L 3.3125 -8.734375 Z M 3.3125 0 "/></g></g></g><g fill="#ffffff" fill-opacity="1"><g transform="translate(52.138756, 31.939339)"><g><path d="M 3.140625 -0.734375 L 3.140625 -1.828125 L 1.359375 -1.828125 L 1.359375 -0.546875 L 1.71875 -0.53125 L 1.71875 0 L 0.203125 0 L 0.203125 -0.515625 L 0.40625 -0.53125 C 0.53125 -0.539062 0.59375 -0.597656 0.59375 -0.703125 L 0.59375 -3.640625 L 0.234375 -3.65625 L 0.234375 -4.1875 L 1.75 -4.1875 L 1.75 -3.671875 L 1.546875 -3.65625 C 1.484375 -3.644531 1.4375 -3.625 1.40625 -3.59375 C 1.375 -3.570312 1.359375 -3.523438 1.359375 -3.453125 L 1.359375 -2.46875 L 3.140625 -2.46875 L 3.140625 -3.640625 L 2.78125 -3.65625 L 2.78125 -4.1875 L 4.3125 -4.1875 L 4.3125 -3.671875 L 4.09375 -3.65625 C 3.976562 -3.644531 3.921875 -3.578125 3.921875 -3.453125 L 3.921875 -0.546875 L 4.28125 -0.53125 L 4.28125 0 L 2.75 0 L 2.75 -0.515625 L 2.953125 -0.53125 C 3.015625 -0.539062 3.0625 -0.554688 3.09375 -0.578125 C 3.125 -0.609375 3.140625 -0.660156 3.140625 -0.734375 Z M 3.140625 -0.734375 "/></g></g></g><g fill="#ffffff" fill-opacity="1"><g transform="translate(57.04914, 31.939339)"><g><path d="M 3.203125 0 L 0.21875 0 L 0.21875 -0.515625 L 0.421875 -0.53125 C 0.546875 -0.539062 0.609375 -0.597656 0.609375 -0.703125 L 0.609375 -3.640625 L 0.25 -3.65625 L 0.25 -4.1875 L 3.125 -4.1875 L 3.125 -3.140625 L 2.484375 -3.09375 L 2.484375 -3.34375 C 2.484375 -3.414062 2.472656 -3.46875 2.453125 -3.5 C 2.429688 -3.53125 2.378906 -3.546875 2.296875 -3.546875 L 1.375 -3.546875 L 1.375 -2.46875 L 2.828125 -2.46875 L 2.828125 -1.828125 L 1.375 -1.828125 L 1.375 -0.65625 L 2.390625 -0.65625 C 2.460938 -0.65625 2.507812 -0.671875 2.53125 -0.703125 C 2.550781 -0.734375 2.5625 -0.78125 2.5625 -0.84375 L 2.5625 -1.171875 L 3.203125 -1.125 Z M 3.203125 0 "/></g></g></g><g fill="#ffffff" fill-opacity="1"><g transform="translate(60.932056, 31.939339)"><g><path d="M 0.421875 -0.703125 L 1.4375 -3.640625 L 1.046875 -3.671875 L 1.046875 -4.1875 L 2.484375 -4.1875 L 3.765625 -0.546875 L 3.78125 -0.546875 L 4.140625 -0.53125 L 4.140625 0 L 2.515625 0 L 2.515625 -0.515625 L 2.75 -0.53125 C 2.820312 -0.539062 2.867188 -0.554688 2.890625 -0.578125 C 2.921875 -0.597656 2.925781 -0.644531 2.90625 -0.71875 L 2.765625 -1.109375 L 1.296875 -1.109375 L 1.109375 -0.546875 L 1.484375 -0.53125 L 1.484375 0 L 0.03125 0 L 0.03125 -0.515625 L 0.234375 -0.53125 C 0.328125 -0.539062 0.390625 -0.597656 0.421875 -0.703125 Z M 2.03125 -3.484375 L 1.453125 -1.6875 L 2.625 -1.6875 L 2.046875 -3.484375 Z M 2.03125 -3.484375 "/></g></g></g><g fill="#ffffff" fill-opacity="1"><g transform="translate(65.527266, 31.939339)"><g><path d="M 3.1875 0 L 0.203125 0 L 0.203125 -0.515625 L 0.40625 -0.53125 C 0.53125 -0.539062 0.59375 -0.597656 0.59375 -0.703125 L 0.59375 -3.640625 L 0.234375 -3.65625 L 0.234375 -4.1875 L 1.75 -4.1875 L 1.75 -3.671875 L 1.546875 -3.65625 C 1.421875 -3.644531 1.359375 -3.578125 1.359375 -3.453125 L 1.359375 -0.65625 L 2.40625 -0.65625 C 2.46875 -0.65625 2.503906 -0.671875 2.515625 -0.703125 C 2.535156 -0.734375 2.546875 -0.78125 2.546875 -0.84375 L 2.546875 -1.296875 L 3.1875 -1.25 Z M 3.1875 0 "/></g></g></g><g fill="#ffffff" fill-opacity="1"><g transform="translate(69.334543, 31.939339)"><g><path d="M 1.375 -0.703125 L 1.375 -3.5625 L 0.875 -3.5625 C 0.78125 -3.5625 0.734375 -3.5 0.734375 -3.375 L 0.734375 -3.078125 L 0.09375 -3.109375 L 0.09375 -4.1875 L 3.390625 -4.1875 L 3.390625 -3.109375 L 2.75 -3.078125 L 2.75 -3.375 C 2.75 -3.4375 2.738281 -3.484375 2.71875 -3.515625 C 2.695312 -3.546875 2.644531 -3.5625 2.5625 -3.5625 L 2.140625 -3.5625 L 2.140625 -0.546875 L 2.625 -0.53125 L 2.625 0 L 0.859375 0 L 0.859375 -0.515625 L 1.1875 -0.53125 C 1.3125 -0.539062 1.375 -0.597656 1.375 -0.703125 Z M 1.375 -0.703125 "/></g></g></g><g fill="#ffffff" fill-opacity="1"><g transform="translate(73.242676, 31.939339)"><g><path d="M 3.140625 -0.734375 L 3.140625 -1.828125 L 1.359375 -1.828125 L 1.359375 -0.546875 L 1.71875 -0.53125 L 1.71875 0 L 0.203125 0 L 0.203125 -0.515625 L 0.40625 -0.53125 C 0.53125 -0.539062 0.59375 -0.597656 0.59375 -0.703125 L 0.59375 -3.640625 L 0.234375 -3.65625 L 0.234375 -4.1875 L 1.75 -4.1875 L 1.75 -3.671875 L 1.546875 -3.65625 C 1.484375 -3.644531 1.4375 -3.625 1.40625 -3.59375 C 1.375 -3.570312 1.359375 -3.523438 1.359375 -3.453125 L 1.359375 -2.46875 L 3.140625 -2.46875 L 3.140625 -3.640625 L 2.78125 -3.65625 L 2.78125 -4.1875 L 4.3125 -4.1875 L 4.3125 -3.671875 L 4.09375 -3.65625 C 3.976562 -3.644531 3.921875 -3.578125 3.921875 -3.453125 L 3.921875 -0.546875 L 4.28125 -0.53125 L 4.28125 0 L 2.75 0 L 2.75 -0.515625 L 2.953125 -0.53125 C 3.015625 -0.539062 3.0625 -0.554688 3.09375 -0.578125 C 3.125 -0.609375 3.140625 -0.660156 3.140625 -0.734375 Z M 3.140625 -0.734375 "/></g></g></g><g fill="#000000" fill-opacity="1"><g transform="translate(78.156693, 31.939339)"><g/></g></g><g fill="#f36100" fill-opacity="1"><g transform="translate(79.847448, 31.939339)"><g><path d="M 2.984375 -1.390625 C 3.066406 -1.585938 3.109375 -1.78125 3.109375 -1.96875 C 3.109375 -2.019531 3.070312 -2.050781 3 -2.0625 L 2.796875 -2.078125 L 2.796875 -2.5625 L 4.125 -2.5625 L 4.125 -2.0625 L 3.78125 -2.046875 C 3.78125 -1.640625 3.691406 -1.269531 3.515625 -0.9375 C 3.703125 -0.78125 3.96875 -0.578125 4.3125 -0.328125 L 3.890625 0.21875 C 3.640625 0.0507812 3.375 -0.144531 3.09375 -0.375 C 2.78125 -0.0625 2.359375 0.09375 1.828125 0.09375 C 1.304688 0.09375 0.921875 -0.03125 0.671875 -0.28125 C 0.429688 -0.53125 0.3125 -0.832031 0.3125 -1.1875 C 0.3125 -1.738281 0.566406 -2.175781 1.078125 -2.5 C 0.953125 -2.71875 0.890625 -2.945312 0.890625 -3.1875 C 0.890625 -3.507812 0.992188 -3.769531 1.203125 -3.96875 C 1.421875 -4.164062 1.722656 -4.265625 2.109375 -4.265625 C 2.492188 -4.265625 2.875 -4.175781 3.25 -4 L 3.25 -3.046875 L 2.609375 -3.015625 L 2.609375 -3.390625 C 2.609375 -3.515625 2.5625 -3.585938 2.46875 -3.609375 C 2.351562 -3.648438 2.242188 -3.671875 2.140625 -3.671875 C 1.796875 -3.671875 1.625 -3.507812 1.625 -3.1875 C 1.625 -2.75 2.078125 -2.148438 2.984375 -1.390625 Z M 2.5625 -0.8125 C 2.0625 -1.238281 1.679688 -1.628906 1.421875 -1.984375 C 1.171875 -1.796875 1.046875 -1.546875 1.046875 -1.234375 C 1.046875 -1.023438 1.109375 -0.851562 1.234375 -0.71875 C 1.367188 -0.582031 1.578125 -0.515625 1.859375 -0.515625 C 2.148438 -0.515625 2.382812 -0.613281 2.5625 -0.8125 Z M 2.5625 -0.8125 "/></g></g></g><g fill="#000000" fill-opacity="1"><g transform="translate(84.771979, 31.939339)"><g/></g></g><g fill="#ffffff" fill-opacity="1"><g transform="translate(86.462734, 31.939339)"><g><path d="M 0.21875 0 L 0.21875 -0.515625 L 0.421875 -0.53125 C 0.546875 -0.539062 0.609375 -0.597656 0.609375 -0.703125 L 0.609375 -3.640625 L 0.25 -3.65625 L 0.25 -4.1875 L 3.28125 -4.1875 L 3.28125 -3.140625 L 2.640625 -3.09375 L 2.640625 -3.34375 C 2.640625 -3.414062 2.628906 -3.46875 2.609375 -3.5 C 2.585938 -3.53125 2.539062 -3.546875 2.46875 -3.546875 L 1.375 -3.546875 L 1.375 -2.4375 L 2.921875 -2.4375 L 2.921875 -1.78125 L 1.375 -1.78125 L 1.375 -0.546875 L 1.9375 -0.53125 L 1.9375 0 Z M 0.21875 0 "/></g></g></g><g fill="#ffffff" fill-opacity="1"><g transform="translate(90.307835, 31.939339)"><g><path d="M 0.59375 -0.734375 L 0.59375 -3.640625 L 0.234375 -3.65625 L 0.234375 -4.1875 L 1.75 -4.1875 L 1.75 -3.671875 L 1.546875 -3.65625 C 1.421875 -3.644531 1.359375 -3.578125 1.359375 -3.453125 L 1.359375 -0.546875 L 1.71875 -0.53125 L 1.71875 0 L 0.203125 0 L 0.203125 -0.515625 L 0.40625 -0.53125 C 0.46875 -0.539062 0.515625 -0.554688 0.546875 -0.578125 C 0.578125 -0.609375 0.59375 -0.660156 0.59375 -0.734375 Z M 0.59375 -0.734375 "/></g></g></g><g fill="#ffffff" fill-opacity="1"><g transform="translate(92.665317, 31.939339)"><g><path d="M 1.375 -0.703125 L 1.375 -3.5625 L 0.875 -3.5625 C 0.78125 -3.5625 0.734375 -3.5 0.734375 -3.375 L 0.734375 -3.078125 L 0.09375 -3.109375 L 0.09375 -4.1875 L 3.390625 -4.1875 L 3.390625 -3.109375 L 2.75 -3.078125 L 2.75 -3.375 C 2.75 -3.4375 2.738281 -3.484375 2.71875 -3.515625 C 2.695312 -3.546875 2.644531 -3.5625 2.5625 -3.5625 L 2.140625 -3.5625 L 2.140625 -0.546875 L 2.625 -0.53125 L 2.625 0 L 0.859375 0 L 0.859375 -0.515625 L 1.1875 -0.53125 C 1.3125 -0.539062 1.375 -0.597656 1.375 -0.703125 Z M 1.375 -0.703125 "/></g></g></g><g fill="#ffffff" fill-opacity="1"><g transform="translate(96.573449, 31.939339)"><g><path d="M 0.203125 0 L 0.203125 -0.515625 L 0.421875 -0.53125 C 0.535156 -0.539062 0.59375 -0.597656 0.59375 -0.703125 L 0.59375 -3.640625 L 0.234375 -3.65625 L 0.234375 -4.1875 L 1.359375 -4.1875 L 3.140625 -1.296875 L 3.15625 -1.296875 L 3.15625 -3.640625 L 2.75 -3.65625 L 2.75 -4.1875 L 4.28125 -4.1875 L 4.28125 -3.671875 L 4.0625 -3.65625 C 3.957031 -3.644531 3.90625 -3.582031 3.90625 -3.46875 L 3.90625 0 L 3.171875 0 L 1.34375 -2.9375 L 1.328125 -2.9375 L 1.328125 -0.546875 L 1.75 -0.53125 L 1.75 0 Z M 0.203125 0 "/></g></g></g><g fill="#ffffff" fill-opacity="1"><g transform="translate(101.439701, 31.939339)"><g><path d="M 3.203125 0 L 0.21875 0 L 0.21875 -0.515625 L 0.421875 -0.53125 C 0.546875 -0.539062 0.609375 -0.597656 0.609375 -0.703125 L 0.609375 -3.640625 L 0.25 -3.65625 L 0.25 -4.1875 L 3.125 -4.1875 L 3.125 -3.140625 L 2.484375 -3.09375 L 2.484375 -3.34375 C 2.484375 -3.414062 2.472656 -3.46875 2.453125 -3.5 C 2.429688 -3.53125 2.378906 -3.546875 2.296875 -3.546875 L 1.375 -3.546875 L 1.375 -2.46875 L 2.828125 -2.46875 L 2.828125 -1.828125 L 1.375 -1.828125 L 1.375 -0.65625 L 2.390625 -0.65625 C 2.460938 -0.65625 2.507812 -0.671875 2.53125 -0.703125 C 2.550781 -0.734375 2.5625 -0.78125 2.5625 -0.84375 L 2.5625 -1.171875 L 3.203125 -1.125 Z M 3.203125 0 "/></g></g></g><g fill="#ffffff" fill-opacity="1"><g transform="translate(105.322618, 31.939339)"><g><path d="M 1.515625 -0.5625 C 2.015625 -0.5625 2.265625 -0.765625 2.265625 -1.171875 C 2.265625 -1.378906 2.15625 -1.535156 1.9375 -1.640625 C 1.820312 -1.691406 1.671875 -1.742188 1.484375 -1.796875 C 1.296875 -1.847656 1.140625 -1.898438 1.015625 -1.953125 C 0.890625 -2.003906 0.765625 -2.078125 0.640625 -2.171875 C 0.390625 -2.359375 0.265625 -2.644531 0.265625 -3.03125 C 0.265625 -3.414062 0.398438 -3.71875 0.671875 -3.9375 C 0.941406 -4.15625 1.289062 -4.265625 1.71875 -4.265625 C 2.144531 -4.265625 2.546875 -4.175781 2.921875 -4 L 2.921875 -3.0625 L 2.265625 -3.015625 L 2.265625 -3.375 C 2.265625 -3.4375 2.257812 -3.484375 2.25 -3.515625 C 2.195312 -3.597656 2.046875 -3.640625 1.796875 -3.640625 C 1.546875 -3.640625 1.363281 -3.59375 1.25 -3.5 C 1.132812 -3.414062 1.078125 -3.28125 1.078125 -3.09375 C 1.078125 -2.957031 1.125 -2.84375 1.21875 -2.75 C 1.289062 -2.675781 1.390625 -2.617188 1.515625 -2.578125 C 1.648438 -2.535156 1.789062 -2.488281 1.9375 -2.4375 C 2.09375 -2.394531 2.226562 -2.34375 2.34375 -2.28125 C 2.457031 -2.226562 2.578125 -2.15625 2.703125 -2.0625 C 2.953125 -1.875 3.078125 -1.582031 3.078125 -1.1875 C 3.078125 -0.789062 2.9375 -0.476562 2.65625 -0.25 C 2.375 -0.03125 2 0.078125 1.53125 0.078125 C 1.070312 0.078125 0.660156 -0.00390625 0.296875 -0.171875 L 0.296875 -1.171875 L 0.9375 -1.21875 L 0.9375 -0.828125 C 0.9375 -0.765625 0.941406 -0.71875 0.953125 -0.6875 C 0.972656 -0.664062 1.023438 -0.640625 1.109375 -0.609375 C 1.191406 -0.578125 1.328125 -0.5625 1.515625 -0.5625 Z M 1.515625 -0.5625 "/></g></g></g><g fill="#ffffff" fill-opacity="1"><g transform="translate(109.035341, 31.939339)"><g><path d="M 1.515625 -0.5625 C 2.015625 -0.5625 2.265625 -0.765625 2.265625 -1.171875 C 2.265625 -1.378906 2.15625 -1.535156 1.9375 -1.640625 C 1.820312 -1.691406 1.671875 -1.742188 1.484375 -1.796875 C 1.296875 -1.847656 1.140625 -1.898438 1.015625 -1.953125 C 0.890625 -2.003906 0.765625 -2.078125 0.640625 -2.171875 C 0.390625 -2.359375 0.265625 -2.644531 0.265625 -3.03125 C 0.265625 -3.414062 0.398438 -3.71875 0.671875 -3.9375 C 0.941406 -4.15625 1.289062 -4.265625 1.71875 -4.265625 C 2.144531 -4.265625 2.546875 -4.175781 2.921875 -4 L 2.921875 -3.0625 L 2.265625 -3.015625 L 2.265625 -3.375 C 2.265625 -3.4375 2.257812 -3.484375 2.25 -3.515625 C 2.195312 -3.597656 2.046875 -3.640625 1.796875 -3.640625 C 1.546875 -3.640625 1.363281 -3.59375 1.25 -3.5 C 1.132812 -3.414062 1.078125 -3.28125 1.078125 -3.09375 C 1.078125 -2.957031 1.125 -2.84375 1.21875 -2.75 C 1.289062 -2.675781 1.390625 -2.617188 1.515625 -2.578125 C 1.648438 -2.535156 1.789062 -2.488281 1.9375 -2.4375 C 2.09375 -2.394531 2.226562 -2.34375 2.34375 -2.28125 C 2.457031 -2.226562 2.578125 -2.15625 2.703125 -2.0625 C 2.953125 -1.875 3.078125 -1.582031 3.078125 -1.1875 C 3.078125 -0.789062 2.9375 -0.476562 2.65625 -0.25 C 2.375 -0.03125 2 0.078125 1.53125 0.078125 C 1.070312 0.078125 0.660156 -0.00390625 0.296875 -0.171875 L 0.296875 -1.171875 L 0.9375 -1.21875 L 0.9375 -0.828125 C 0.9375 -0.765625 0.941406 -0.71875 0.953125 -0.6875 C 0.972656 -0.664062 1.023438 -0.640625 1.109375 -0.609375 C 1.191406 -0.578125 1.328125 -0.5625 1.515625 -0.5625 Z M 1.515625 -0.5625 "/></g></g></g><path stroke-linecap="butt" transform="matrix(0.744485, 0, 0, 0.744485, 48.256957, 20.942514)" fill="none" stroke-linejoin="miter" d="M 0.00114885 1.000673 L 91.297454 1.000673 " stroke="#f36100" stroke-width="2" stroke-opacity="1" stroke-miterlimit="4"/></svg>